# xmcd CD database file
#
# Track frame offsets:
#	150
#	11921
#	22014
#	38189
#	54354
#	68843
#	85486
#	102321
#	118705
#	133164
#	147674
#	164242
#	179880
#
# Disc length: 2538 seconds
#
# Revision: 0
# Processed by: cddbd v1.4PL0 Copyright (c) Steve Scherf et al.
# Submitted via: CDex 1.40Beta9
#
DISCID=cc09e80d
DTITLE=La Mississippi - Bit Hippie
DYEAR=2001
DGENRE=Blues
TTITLE0=Perro Guardián
TTITLE1=El Municipal
TTITLE2=Obsesión
TTITLE3=Incidentes en la ruta
TTITLE4=Gente Mala
TTITLE5=Mi Capital
TTITLE6=El Detalle
TTITLE7=Valentín Alsina (Ritmo y Blues)
TTITLE8=Hola y Adiós
TTITLE9=Sin Rumbo
TTITLE10=La Misma Moneda
TTITLE11=Un Día Feliz
TTITLE12=Fauna De Bar (Bonus Track)
EXTD=YEAR: 2001 ID3G: 0
EXTT0=
EXTT1=
EXTT2=
EXTT3=
EXTT4=
EXTT5=
EXTT6=
EXTT7=
EXTT8=
EXTT9=
EXTT10=
EXTT11=
EXTT12=
PLAYORDER=
